# xmcd CD database file
#
# Track frame offsets:
#	150
#	24821
#	51917
#	77593
#	102348
#	123788
#	143110
#	165330
#	167294
#	194447
#	211959
#	242037
#	267098
#	297762
#
# Disc length: 4668 seconds
#
# Revision: 0
# Processed by: cddbd v1.5.2PL0 Copyright (c) Steve Scherf et al.
# Submitted via: CDex 1.70beta2
#
DISCID=b0123a0e
DTITLE=Craig Erickson - Rare Tracks
DYEAR=2007
DGENRE=Blues Rock
TTITLE0=Jammin' July
TTITLE1=Rewind
TTITLE2=Only Drifting
TTITLE3=Away
TTITLE4=Stones In My Pathway
TTITLE5=River Blues
TTITLE6=Tomorrow
TTITLE7=Guitar-Bas Interplay
TTITLE8=Overload
TTITLE9=Jam For J
TTITLE10=Down At The Bottom
TTITLE11=Little Wing
TTITLE12=Elliptical Galaxy
TTITLE13=Below Zero Blues
EXTD=YEAR: 2007
EXTT0=
EXTT1=
EXTT2=
EXTT3=
EXTT4=
EXTT5=
EXTT6=
EXTT7=
EXTT8=
EXTT9=
EXTT10=
EXTT11=
EXTT12=
EXTT13=
PLAYORDER=
